<svg xmlns="http://www.w3.org/2000/svg" viewBox="0 0 24.16 17.23"><defs><style>.cls-1{fill:#00389d;}</style></defs><g id="Layer_2" data-name="Layer 2"><g id="Capa_8" data-name="Capa 8"><path class="cls-1" d="M11.93,17a28.72,28.72,0,0,0-2.72-2A9.37,9.37,0,0,0,2.71,14c-.58.1-.63.06-.63-.52,0-4.18,0-8.37,0-12.55,0-.49.2-.65.65-.74a8.35,8.35,0,0,1,6.7,1.22,11.64,11.64,0,0,1,2.07,2A2.27,2.27,0,0,1,12,4.78c0,3.94,0,7.87,0,11.81A2.75,2.75,0,0,1,11.93,17Z"/><path class="cls-1" d="M12.25,17.18c0-.31-.07-.5-.07-.69,0-3.85,0-7.71,0-11.56a2.44,2.44,0,0,1,.55-1.65A8.29,8.29,0,0,1,21,.15C22.18.35,22,.24,22,1.5q0,6,0,12c0,.63,0,.67-.63.57a9.72,9.72,0,0,0-8.92,2.89Z"/><path class="cls-1" d="M13.07,17.21a8.44,8.44,0,0,1,2.73-1.75,10.76,10.76,0,0,1,6.09-.65l.39.06c.29.06.45,0,.44-.35,0-.12,0-.23,0-.35,0-4.08,0-8.16,0-12.24,0-.23.08-.64.16-.65A3.71,3.71,0,0,1,24,1.34c.08,0,.15.31.15.47,0,1,0,2,0,3v11c0,.62,0,.63-.65.55a25,25,0,0,0-7.42.19c-.94.16-1.86.42-2.79.63Z"/><path class="cls-1" d="M11.09,17.23c-.65-.15-1.29-.32-1.95-.46A26,26,0,0,0,.7,16.38c-.7.08-.7.1-.7-.58V2a.87.87,0,0,1,1.31-.71c.11.06.16.27.17.42,0,.62,0,1.25,0,1.88l0,10.57c0,.83,0,.83.83.68a11,11,0,0,1,8.58,2.06,3.33,3.33,0,0,1,.28.25Z"/></g></g></svg>