<svg xmlns="http://www.w3.org/2000/svg" viewBox="0 0 17.01 17.45"><defs><style>.cls-1{fill:#8b8b8b;}</style></defs><g id="Layer_2" data-name="Layer 2"><g id="Capa_6" data-name="Capa 6"><path class="cls-1" d="M3.89,1.82v-.4c0-.32,0-.63,0-.95A.47.47,0,0,1,4.39,0a.48.48,0,0,1,.47.49V1.81H12V.49A.48.48,0,0,1,12.89.3a.64.64,0,0,1,0,.2V1.82h2.23a1.75,1.75,0,0,1,1.14.41A1.81,1.81,0,0,1,17,3.73V15.58a1.87,1.87,0,0,1-1.69,1.84l-.53,0H2a1.91,1.91,0,0,1-2-1.68.86.86,0,0,1,0-.16v-12A1.88,1.88,0,0,1,1.82,1.82H3.89ZM1,6.29v9.19a1,1,0,0,0,1,1H15.05a1,1,0,0,0,1-1V6.29Z"/><path class="cls-1" d="M9.8,10.56H7.24V8H9.8Z"/><path class="cls-1" d="M9.8,14.51H7.24a.49.49,0,0,1,0-.12v-2.3c0-.08,0-.15.11-.15H9.8Z"/><path class="cls-1" d="M3.34,8H5.88v2.55H3.34Z"/><path class="cls-1" d="M13.71,10.57H11.15V8h2.56Z"/><path class="cls-1" d="M3.33,14.51V12H5.88v2.55Z"/></g></g></svg>