<svg xmlns="http://www.w3.org/2000/svg" viewBox="0 0 18.24 15.31"><defs><style>.cls-1{fill:#8b8b8b;}</style></defs><g id="Layer_2" data-name="Layer 2"><g id="Capa_6" data-name="Capa 6"><g id="ceZqAg"><path class="cls-1" d="M6.38,2.59H.56C.22,2.59,0,2.43,0,2.16a.45.45,0,0,1,.44-.49H12.21a.29.29,0,0,0,.34-.24,2.13,2.13,0,0,1,4,.06.22.22,0,0,0,.25.18c.29,0,.59,0,.88,0a.45.45,0,0,1,.51.47c0,.27-.19.44-.51.45h-.88c-.14,0-.2,0-.25.17a2.13,2.13,0,0,1-4.06,0,.24.24,0,0,0-.27-.19Zm8.17.74a1.19,1.19,0,0,0,1.21-1.21,1.21,1.21,0,1,0-2.41,0A1.2,1.2,0,0,0,14.55,3.33Z"/><path class="cls-1" d="M4.45,12.72h4a.24.24,0,0,0,.27-.2,2.12,2.12,0,0,1,4,0,.26.26,0,0,0,.31.21h4.63a.53.53,0,0,1,.47.18.45.45,0,0,1-.24.72,1.83,1.83,0,0,1-.33,0H13a.28.28,0,0,0-.32.22,2.12,2.12,0,0,1-4,0c0-.18-.14-.21-.3-.21H.47A.45.45,0,0,1,0,13.18a.45.45,0,0,1,.49-.46h4ZM10.71,12A1.2,1.2,0,0,0,9.5,13.19a1.21,1.21,0,1,0,2.42,0A1.2,1.2,0,0,0,10.71,12Z"/><path class="cls-1" d="M12,8.11H6.18c-.22,0-.24.13-.28.26A2.07,2.07,0,0,1,4.63,9.65,2.11,2.11,0,0,1,1.86,8.28a.22.22,0,0,0-.25-.17H.45a.45.45,0,0,1-.22-.85.77.77,0,0,1,.3-.06H1.61A.22.22,0,0,0,1.86,7,2.14,2.14,0,0,1,3.74,5.53,2.05,2.05,0,0,1,5.8,6.74c.16.42.38.47.75.46H17.68c.37,0,.56.17.55.48a.42.42,0,0,1-.38.42H12ZM5.1,7.65a1.2,1.2,0,0,0-1.2-1.2,1.21,1.21,0,1,0,1.2,1.2Z"/></g></g></g></svg>