<svg xmlns="http://www.w3.org/2000/svg" viewBox="0 0 26.09 17.12"><defs><style>.cls-1{fill:#00389d;}</style></defs><g id="Layer_2" data-name="Layer 2"><g id="Capa_5" data-name="Capa 5"><g id="S7Igyy"><path class="cls-1" d="M9.71,17.11c-2.18,0-4.36,0-6.53,0A3.06,3.06,0,0,1,0,13.89C.05,10.31,0,6.72,0,3.13A2.9,2.9,0,0,1,3.12,0C7.5,0,11.89,0,16.27,0a3,3,0,0,1,3.15,3.17c-.06,3.59,0,7.18,0,10.76a2.87,2.87,0,0,1-3.17,3.18ZM6.29,8.52c0,1.28,0,2.56,0,3.84a.84.84,0,0,0,.3.62c.13.09.45,0,.62-.12,1.82-1.24,3.62-2.49,5.43-3.74.65-.46.65-.75,0-1.19L9.07,5.49c-.66-.45-1.31-.91-2-1.34-.4-.26-.72-.11-.8.36a2.67,2.67,0,0,0,0,.4Z"/><path class="cls-1" d="M26.09,8.6c0,1.73,0,3.47,0,5.2a1.33,1.33,0,0,1-.37.88c-.3.27-.69.11-1-.13-1.41-1-2.81-2-4.23-3a1.25,1.25,0,0,1-.6-1.17c0-1.27,0-2.54,0-3.81a1.1,1.1,0,0,1,.52-1c1.48-1,2.93-2.06,4.41-3a1.1,1.1,0,0,1,.93-.11,1,1,0,0,1,.36.81C26.1,5,26.09,6.81,26.09,8.6Z"/></g></g></g></svg>